# xmcd
#
# Track frame offsets:
# 150
# 24880
# 44447
# 66561
# 80915
# 107790
# 130676
# 152150
# 171877
# 197054
# 218851
# 246672
# 288840
# 309595
#
# Disc length: 4377 seconds
#
# Revision: 0
# Processed by: cddbd v1.5.2PL0 Copyright (c) Steve Scherf et al.
# Submitted via: Audion 3.0.2 (http://www.panic.com/audion/)
#
DISCID=d011170e
DTITLE=Oasis - Oasis
DYEAR=1900
DGENRE=
TTITLE0=Let there be love
TTITLE1=w
TTITLE2=little by little
TTITLE3=s
TTITLE4=stand by me
TTITLE5=stop crying your heart out
TTITLE6=s
TTITLE7=t
TTITLE8=t
TTITLE9=don't go away
TTITLE10=f
TTITLE11=f
TTITLE12=f
TTITLE13=r
EXTD=
EXTT0=
EXTT1=
EXTT2=
EXTT3=
EXTT4=
EXTT5=
EXTT6=
EXTT7=
EXTT8=
EXTT9=
EXTT10=
EXTT11=
EXTT12=
EXTT13=
PLAYORDER=
